<?xml version="1.0" encoding="UTF-8" standalone="no"?>
<!-- Created with Inkscape (http://www.inkscape.org/) -->

<svg
   width="512"
   height="128"
   viewBox="0 0 135.46666 33.866666"
   version="1.1"
   id="svg5"
   inkscape:version="1.2.2 (732a01da63, 2022-12-09)"
   sodipodi:docname="raw_whole.svg"
   inkscape:export-filename="HQ_whole.png"
   inkscape:export-xdpi="96"
   inkscape:export-ydpi="96"
   xmlns:inkscape="http://www.inkscape.org/namespaces/inkscape"
   xmlns:sodipodi="http://sodipodi.sourceforge.net/DTD/sodipodi-0.dtd"
   xmlns="http://www.w3.org/2000/svg"
   xmlns:svg="http://www.w3.org/2000/svg">
  <sodipodi:namedview
     id="namedview7"
     pagecolor="#505050"
     bordercolor="#eeeeee"
     borderopacity="1"
     inkscape:showpageshadow="0"
     inkscape:pageopacity="0"
     inkscape:pagecheckerboard="0"
     inkscape:deskcolor="#505050"
     inkscape:document-units="px"
     showgrid="false"
     inkscape:zoom="1.1131408"
     inkscape:cx="137.8981"
     inkscape:cy="-50.308102"
     inkscape:window-width="1920"
     inkscape:window-height="1009"
     inkscape:window-x="-8"
     inkscape:window-y="-8"
     inkscape:window-maximized="1"
     inkscape:current-layer="layer1" />
  <defs
     id="defs2" />
  <g
     inkscape:label="Layer 1"
     inkscape:groupmode="layer"
     id="layer1">
    <rect
       style="fill:#e6e6e6;stroke-width:0.264583"
       id="rect959"
       width="135.46666"
       height="33.866665"
       x="0"
       y="0"
       ry="16.933331" />
    <rect
       style="fill:#00222b;stroke-width:0.264583"
       id="rect694"
       width="33.866665"
       height="33.866665"
       x="0"
       y="0"
       ry="16.933332" />
    <path
       id="path234"
       style="fill:#008080;stroke-width:0.198437"
       d="M 17.991666,4.2333331 A 12.7,12.7 0 0 0 5.2916666,16.933333 a 12.7,12.7 0 0 0 12.6999994,12.7 12.7,12.7 0 0 0 12.7,-12.7 12.7,12.7 0 0 0 -12.7,-12.6999999 z m 0,3.175 a 9.5249996,9.5249996 0 0 1 9.525,9.5249999 9.5249996,9.5249996 0 0 1 -9.525,9.525 9.5249996,9.5249996 0 0 1 -9.5249995,-9.525 9.5249996,9.5249996 0 0 1 9.5249995,-9.5249999 z" />
    <rect
       style="fill:#00ffff;stroke-width:0.416512"
       id="rect610-8"
       width="9.5249996"
       height="3.175"
       x="2.4468791"
       y="15.441951" />
    <path
       id="path234-0"
       style="fill:#00ffff;stroke-width:0.248046"
       d="M 4.6136718,6.9215412 A 15.875,15.875 0 0 0 4.7723184,27.137361 L 7.2093789,25.092525 A 12.7,12.7 0 0 1 4.2333332,16.933333 12.7,12.7 0 0 1 7.0827717,8.928137 Z" />
    <rect
       style="fill:#008080;stroke-width:0.416512"
       id="rect610"
       width="9.5249996"
       height="3.175"
       x="31.543716"
       y="-2.3358545"
       transform="rotate(45)" />
    <text
       xml:space="preserve"
       style="font-size:14.1111px;line-height:0;font-family:'Rounded M+ 1c';-inkscape-font-specification:'Rounded M+ 1c';text-align:end;text-anchor:end;fill:#00222b;stroke-width:0.264583"
       x="125.63116"
       y="19.883957"
       id="text815"><tspan
         sodipodi:role="line"
         id="tspan813"
         style="font-size:14.1111px;stroke-width:0.264583"
         x="125.63116"
         y="19.883957">はるかぜ鉄道</tspan></text>
    <text
       xml:space="preserve"
       style="font-size:7.05556px;line-height:0;font-family:'Rounded M+ 1c';-inkscape-font-specification:'Rounded M+ 1c';text-align:end;text-anchor:end;fill:#00222b;stroke-width:0.264583"
       x="108.42297"
       y="29.007084"
       id="text815-8"><tspan
         sodipodi:role="line"
         id="tspan813-6"
         style="font-size:7.05556px;stroke-width:0.264583"
         x="108.42297"
         y="29.007084">Harqua Railway</tspan></text>
  </g>
</svg>
